Coordinates
version=1
nRows=5
nColumns=40
inDegrees=yes

Units are S.I. units (second, meters, Newtons, ...)
If the header above contains a line with 'inDegrees', this indicates whether rotational values are in degrees (yes) or radians (no).

endheader
time	pelvis_tilt	pelvis_list	pelvis_rotation	pelvis_tx	pelvis_ty	pelvis_tz	hip_flexion_r	hip_adduction_r	hip_rotation_r	knee_angle_r	knee_angle_r_beta	ankle_angle_r	subtalar_angle_r	mtp_angle_r	hip_flexion_l	hip_adduction_l	hip_rotation_l	knee_angle_l	knee_angle_l_beta	ankle_angle_l	subtalar_angle_l	mtp_angle_l	lumbar_extension	lumbar_bending	lumbar_rotation	arm_flex_r	arm_add_r	arm_rot_r	elbow_flex_r	pro_sup_r	wrist_flex_r	wrist_dev_r	arm_flex_l	arm_add_l	arm_rot_l	elbow_flex_l	pro_sup_l	wrist_flex_l	wrist_dev_l
      0.00500000	     -4.34622210	      4.31293457	     -3.98069554	      0.23872596	      0.89958509	     -1.19513016	      5.78909193	    -25.67637158	    -34.85572054	      6.76139821	      0.11800866	     -7.44371289	     14.37110879	      0.00000000	      3.28660446	    -15.24409504	    -38.75635539	      5.73359256	      0.10007007	     -6.57808586	     16.17400109	      0.00000000	    -13.77978827	     -3.01228649	     -0.23522070	     42.65759971	    -16.35974737	     42.65759971	     75.63820577	     44.68001029	      0.00000000	      0.00000000	     42.65759971	    -16.35974737	     42.65759971	     75.63820577	     44.68001029	      0.00000000	      0.00000000
      0.01000000	     -4.39939692	      4.33354486	     -4.01723343	      0.23872846	      0.89952147	     -1.19513392	      5.85315160	    -25.67422780	    -34.75388649	      6.71141618	      0.11713631	     -7.49497366	     14.31342443	      0.00000000	      3.31249860	    -15.20698333	    -38.77745223	      5.67529585	      0.09905260	     -6.61946793	     16.17180088	      0.00000000	    -13.70214566	     -3.02386982	     -0.21632358	     42.68968236	    -16.33144421	     42.68968236	     75.61523745	     44.70544347	      0.00000000	      0.00000000	     42.68968236	    -16.33144421	     42.68968236	     75.61523745	     44.70544347	      0.00000000	      0.00000000
      0.01500000	     -4.39691236	      4.24257657	     -4.05304811	      0.23871010	      0.89961937	     -1.19509937	      5.77424732	    -25.48021654	    -34.58012324	      6.47782238	      0.11305933	     -7.69425037	     14.03314189	      0.00000000	      3.28790284	    -15.30643975	    -38.76355203	      5.67266266	      0.09900664	     -6.61925411	     16.12815315	      0.00000000	    -13.71500229	     -2.91895999	     -0.17313658	     42.88634759	    -16.18163245	     42.88634759	     75.51766674	     44.79286418	      0.00000000	      0.00000000	     42.88634759	    -16.18163245	     42.88634759	     75.51766674	     44.79286418	      0.00000000	      0.00000000
      0.02000000	     -4.40914977	      4.33520057	     -4.10414718	      0.23878867	      0.89957146	     -1.19501966	      5.87858054	    -25.63510280	    -34.65379728	      6.63330402	      0.11577300	     -7.59063921	     14.22090319	      0.00000000	      3.25193051	    -15.16913159	    -38.76376573	      5.56753846	      0.09717188	     -6.68845245	     16.00227988	      0.00000000	    -13.67034623	     -3.02935572	     -0.11323648	     43.15728766	    -15.97707320	     43.15728766	     75.39353137	     44.86468349	      0.00000000	      0.00000000	     43.15728766	    -15.97707320	     43.15728766	     75.39353137	     44.86468349	      0.00000000	      0.00000000
      0.02500000	     -4.45972723	      4.33861549	     -4.05932149	      0.23882026	      0.89950679	     -1.19514276	      5.88822497	    -25.63561235	    -34.71520644	      6.58781339	      0.11497903	     -7.61318715	     14.27454303	      0.00000000	      3.33664797	    -15.17538730	    -38.73517188	      5.61214180	      0.09795035	     -6.66690935	     16.01158183	      0.00000000	    -13.60819373	     -3.01176846	     -0.17961182	     43.27275207	    -15.89285544	     43.27275207	     75.34441520	     44.89203576	      0.00000000	      0.00000000	     43.27275207	    -15.89285544	     43.27275207	     75.34441520	     44.89203576	      0.00000000	      0.00000000
